<?xml version="1.0" standalone="no"?>
<!DOCTYPE svg PUBLIC "-//W3C//DTD SVG 1.1//EN" "http://www.w3.org/Graphics/SVG/1.1/DTD/svg11.dtd" >
<svg xmlns="http://www.w3.org/2000/svg">
<metadata></metadata>
<defs>
<font id="relay-boldregular" horiz-adv-x="1040" >
<font-face units-per-em="2048" ascent="1638" descent="-410" />
<missing-glyph horiz-adv-x="557" />
<glyph horiz-adv-x="2048" />
<glyph horiz-adv-x="2048" />
<glyph unicode="&#xd;" horiz-adv-x="1024" />
<glyph unicode=" "  horiz-adv-x="557" />
<glyph unicode="&#x09;" horiz-adv-x="557" />
<glyph unicode="&#xa0;" horiz-adv-x="557" />
<glyph unicode="!" horiz-adv-x="770" d="M211 168q0 -80 51 -129t123 -49q74 0 124 49t50 129q0 74 -50 124t-124 50q-72 0 -123 -50t-51 -124zM244 434h284v1010h-284v-1010z" />
<glyph unicode="&#x22;" horiz-adv-x="993" d="M168 891h252v545h-252v-545zM573 891h252v545h-252v-545z" />
<glyph unicode="#" horiz-adv-x="1175" d="M61 430h199l-65 -430h200l68 430h166l-66 -430h203l65 430h289v209h-256l25 158h231v209h-200l63 428h-203l-63 -428h-168l65 428h-202l-64 -428h-287v-209h256l-24 -158h-232v-209zM477 627l31 182h192l-28 -182h-195z" />
<glyph unicode="$" horiz-adv-x="1179" d="M63 94q72 -35 189 -65.5t262 -36.5v-164h186v172q117 12 196 47t128 87t70.5 120t21.5 147q0 96 -37 167t-97 122t-134 87t-148 67v336q72 -6 138.5 -19.5t124.5 -34.5l79 248q-35 16 -124 39t-218 29v164h-186v-168q-90 -10 -164 -36t-127 -73t-81.5 -116.5 t-28.5 -163.5t35.5 -163t93 -120t129 -87t143.5 -67v-364q-115 10 -210 37.5t-150 50.5zM391 1061q0 51 34 78t89 37v-254q-55 29 -89 61.5t-34 77.5zM700 252v285q61 -31 100.5 -66t39.5 -86q-1 -108 -140 -133z" />
<glyph unicode="%" horiz-adv-x="2052" d="M78 971q0 -106 26.5 -193.5t76.5 -149t121 -95t157 -33.5t155.5 33.5t119.5 95t77 148.5t27 194q0 106 -27 194t-77 149.5t-119.5 95.5t-155.5 34t-157 -34t-121 -95.5t-76.5 -149.5t-26.5 -194zM317 967q0 104 35 174.5t107 70.5q35 0 61.5 -19t44 -52t25.5 -78t8 -96 t-8 -96.5t-25.5 -78t-44 -52t-61.5 -19.5q-72 0 -107 70.5t-35 175.5zM559 0h219l715 1434h-221zM1214 461q0 -109 28 -196t77 -148.5t119.5 -95t156.5 -33.5t157 33.5t120 95t76.5 148.5t27.5 196q0 106 -27.5 193t-76.5 149.5t-120 96.5t-157 34t-156.5 -34t-119.5 -96.5 t-77 -149.5t-28 -193zM1456 457q0 51 8.5 95t25.5 78t43 53t62 19q37 0 62.5 -19t43 -53t26 -78t8.5 -95q0 -104 -34 -175t-106 -71t-105.5 70.5t-33.5 175.5z" />
<glyph unicode="&#x26;" horiz-adv-x="1468" d="M70 401q0 -111 40 -191.5t103 -132.5t143 -77t162 -25q242 0 440 175l95 -150h338l-240 383q59 100 111.5 224t93.5 276l-246 65q-29 -98 -54.5 -179t-54.5 -148l-350 559h467v264h-936v-53l269 -428q-176 -88 -278.5 -228.5t-102.5 -333.5zM362 436q0 102 58.5 186.5 t157.5 137.5l256 -412q-111 -111 -275 -110q-92 0 -144.5 56t-52.5 142z" />
<glyph unicode="'" horiz-adv-x="614" d="M168 891h278v545h-278v-545z" />
<glyph unicode="(" horiz-adv-x="817" d="M123 727q0 -160 27.5 -297t70.5 -249.5t96.5 -201t104.5 -151.5l270 82q-47 57 -98 137t-93 182.5t-70 225.5t-28 266t28 267t70 227.5t92 184.5t97 138l-268 82q-51 -63 -104.5 -151.5t-96.5 -201t-70.5 -247.5t-27.5 -293z" />
<glyph unicode=")" horiz-adv-x="817" d="M127 -90l268 -82q51 63 104.5 151.5t97.5 201t71.5 247.5t27.5 293q0 160 -27.5 297t-71.5 249.5t-97.5 200.5t-104.5 152l-268 -82q47 -57 97 -137t92 -182.5t70 -225.5t28 -266t-28 -267t-70 -227.5t-92 -184.5t-97 -138z" />
<glyph unicode="*" horiz-adv-x="1138" d="M43 995l346 -114l-215 -297l180 -133l217 294l215 -294l181 133l-213 295l346 114l-70 213l-348 -112v364h-225l2 -366l-344 114z" />
<glyph unicode="+" horiz-adv-x="1185" d="M139 598h314v-326h278v326h316v231h-316v328h-278v-328h-314v-231z" />
<glyph unicode="," horiz-adv-x="634" d="M92 -313h232l215 649h-338z" />
<glyph unicode="-" horiz-adv-x="954" d="M139 469h676v260h-676v-260z" />
<glyph unicode="." horiz-adv-x="645" d="M133 182q0 -86 54 -141t132 -55q82 0 137.5 55t55.5 141q0 80 -55.5 134.5t-137.5 54.5q-39 0 -72.5 -14.5t-59 -40t-40 -60.5t-14.5 -74z" />
<glyph unicode="/" horiz-adv-x="1001" d="M43 0h276l637 1444h-274z" />
<glyph unicode="0" horiz-adv-x="1341" d="M90 713q0 -164 42 -299t119 -231.5t183.5 -148.5t235.5 -52t235.5 52t183 148.5t119.5 231.5t43 299q0 166 -43 301t-119.5 231t-183 148.5t-235.5 52.5t-235.5 -52.5t-183.5 -148.5t-119 -231t-42 -301zM383 705q0 98 18.5 183t55.5 147.5t90 98t123 35.5t124 -35.5 t91 -98t55 -147.5t18 -183t-18 -183.5t-55 -147t-91 -97t-124 -35.5t-123 35.5t-90 97t-55.5 146.5t-18.5 184z" />
<glyph unicode="1" horiz-adv-x="800" d="M66 1165h219v-1165h290v1434h-509v-269z" />
<glyph unicode="2" horiz-adv-x="1069" d="M4 0h1028v252h-516l70 82q94 113 163.5 203t113.5 169.5t65.5 155.5t21.5 160q0 109 -39 188.5t-109.5 132t-167.5 77t-214 24.5q-111 0 -217.5 -20.5t-171.5 -47.5l59 -258q27 8 63.5 17.5t78.5 17.5t84 12t79 4q141 0 202.5 -47t61.5 -131q0 -51 -15 -101t-56 -116.5 t-111.5 -156t-179.5 -218.5l-293 -346v-53z" />
<glyph unicode="3" horiz-adv-x="1073" d="M29 1165h469l-234 -331v-50q100 -10 183 -28.5t142.5 -49t92.5 -77.5t33 -117q0 -72 -35 -122t-115 -82t-210 -46t-322 -14l10 -260q227 0 406.5 24.5t303.5 84t189.5 157.5t65.5 250q0 123 -46.5 201.5t-108.5 127t-125.5 70t-96.5 27.5l313 452v52h-915v-269z" />
<glyph unicode="4" horiz-adv-x="1318" d="M47 281h684v-281h283v281h235v237h-235v926h-205l-762 -987v-176zM385 518l346 447v-447h-346z" />
<glyph unicode="5" horiz-adv-x="1114" d="M70 248l10 -260q227 0 406.5 23.5t303 82t189 156.5t65.5 248q0 135 -51 225t-141 146.5t-217 85t-277 38.5l9 172h591v269h-837l-31 -664q182 -2 308 -17.5t205 -46t114 -79.5t35 -119q0 -72 -35 -121t-115 -80t-210 -45t-322 -14z" />
<glyph unicode="6" horiz-adv-x="1218" d="M59 582q0 -152 46.5 -263.5t126 -185.5t187 -109.5t230.5 -35.5q98 0 193.5 30.5t170 92t121 152.5t46.5 210q0 145 -48.5 238.5t-120 147.5t-155.5 74.5t-156 20.5q-78 0 -152 -17t-140 -46q51 111 135 209t198 205l-217 161q-102 -86 -187 -186t-146.5 -213 t-96.5 -234.5t-35 -250.5zM344 586v20q0 13 2 23q55 33 130 57.5t165 24.5q111 0 180.5 -59.5t69.5 -180.5q0 -106 -70.5 -169.5t-177.5 -63.5q-137 0 -218 91t-81 257z" />
<glyph unicode="7" horiz-adv-x="1064" d="M33 1165h616l-452 -1165h299l534 1380v54h-997v-269z" />
<glyph unicode="8" horiz-adv-x="1265" d="M66 412q0 -92 38.5 -172t111.5 -137.5t178.5 -90t240.5 -32.5t239.5 32.5t177 91t110.5 137t38 171.5q0 141 -66.5 239.5t-183.5 136.5q86 39 136.5 117t50.5 189q0 72 -33 137t-96.5 114.5t-157.5 79t-215 29.5t-215 -29.5t-157.5 -80t-96.5 -116t-33 -136.5 q0 -111 51.5 -188t132.5 -118q-111 -37 -181 -135t-70 -239zM354 426q0 106 77 165.5t204 59.5q125 0 200.5 -60.5t75.5 -166.5q0 -109 -78.5 -163t-197.5 -54q-59 0 -110.5 13t-89.5 41t-59.5 69t-21.5 96zM422 1051q0 74 54 122t159 48q104 0 158.5 -48.5t54.5 -121.5 q0 -74 -53.5 -125.5t-157.5 -51.5t-159.5 51.5t-55.5 125.5z" />
<glyph unicode="9" horiz-adv-x="1218" d="M39 952q0 -145 48 -238t120 -146.5t155.5 -74t155.5 -20.5q78 0 154 17.5t139 46.5q-49 -111 -134 -209.5t-200 -206.5l217 -162q100 86 186.5 187.5t148 214t96 235.5t34.5 252q0 158 -49 269.5t-131 183t-188.5 104.5t-221.5 33q-98 0 -193 -31t-170 -92.5t-121 -152.5 t-46 -210zM326 946q0 106 71.5 171t177.5 65q137 0 218 -88t81 -256v-25q0 -12 -2 -22q-55 -33 -129.5 -58.5t-164.5 -25.5q-111 0 -181.5 60t-70.5 179z" />
<glyph unicode=":" horiz-adv-x="647" d="M143 172q0 -84 52.5 -135t126.5 -51q78 0 130 51t52 135q0 78 -52.5 130t-129.5 52q-74 0 -126.5 -52t-52.5 -130zM143 791q0 -84 52.5 -135.5t126.5 -51.5q78 0 130 51.5t52 135.5q0 37 -13.5 70.5t-38 58t-58.5 39t-72 14.5q-74 0 -126.5 -53.5t-52.5 -128.5z" />
<glyph unicode=";" horiz-adv-x="647" d="M78 -299h219l209 623h-326zM143 791q0 -84 52.5 -135.5t126.5 -51.5q78 0 130 51.5t52 135.5q0 37 -13.5 70.5t-38 58t-58.5 39t-72 14.5q-74 0 -126.5 -53.5t-52.5 -128.5z" />
<glyph unicode="&#x3c;" horiz-adv-x="933" d="M117 672l653 -486v287l-313 236l313 235v287l-653 -486v-73z" />
<glyph unicode="=" horiz-adv-x="1052" d="M141 360h770v230h-770v-230zM141 807h770v229h-770v-229z" />
<glyph unicode="&#x3e;" horiz-adv-x="933" d="M164 186l653 488v74l-653 483v-287l313 -233l-313 -238v-287z" />
<glyph unicode="?" horiz-adv-x="1230" d="M150 1436l26 -262q45 4 95.5 8t103.5 4q78 0 153.5 -10.5t135 -35t96.5 -64.5t37 -99q0 -106 -107.5 -162.5t-329.5 -73.5v-317h289v141q74 14 152 45t142.5 82t105.5 128t41 188q0 137 -64.5 224t-165 137t-221.5 69.5t-233 19.5q-74 0 -141.5 -7t-114.5 -15zM328 168 q0 -80 50 -129t122 -49q74 0 125 49t51 129q0 74 -51.5 124t-124.5 50q-72 0 -122 -50t-50 -124z" />
<glyph unicode="@" horiz-adv-x="1681" d="M88 547q0 -172 50 -319.5t147.5 -255t240 -169t324.5 -61.5q63 0 132 8t134.5 23.5t123.5 35t101 41.5l-38 111q-96 -39 -214 -64.5t-239 -25.5q-158 0 -275.5 52t-194.5 143.5t-115 214t-38 266.5q0 143 40 267t119 216t192.5 145.5t261.5 53.5q147 0 263 -52.5 t195.5 -144.5t120.5 -216t41 -267q0 -176 -39 -244.5t-131 -68.5q-74 0 -99.5 36.5t-14.5 110.5l81 582h-215l-20 -58q-43 25 -92 41.5t-127 16.5q-102 0 -181 -39t-134.5 -107.5t-84 -162t-28.5 -201.5q0 -80 21.5 -147.5t64.5 -117t105.5 -77t146.5 -27.5q57 0 126.5 18.5 t141.5 61.5q39 -37 98.5 -57.5t139.5 -20.5q184 0 279 106.5t95 354.5q0 172 -53 320.5t-151.5 257t-237.5 170t-311 61.5t-310.5 -61.5t-236.5 -171t-151.5 -258t-53.5 -320.5zM635 487q0 104 54 174t159 70q45 0 71.5 -5t51.5 -13l-49 -346q-2 -8 -2 -17q0 -6 -2 -16 q-29 -10 -54.5 -16.5t-54.5 -6.5q-92 0 -133 49.5t-41 126.5z" />
<glyph unicode="A" horiz-adv-x="1404" d="M20 0h297l91 219h569l92 -219h313l-632 1460h-105zM506 461l182 444l186 -444h-368z" />
<glyph unicode="B" horiz-adv-x="1320" d="M152 0h368q362 0 536.5 99.5t174.5 310.5q0 80 -23.5 138t-64.5 100t-95.5 67.5t-115.5 40.5q98 29 167.5 109.5t69.5 203.5q0 106 -46 178t-133 116t-213 62.5t-285 18.5h-340v-1444zM430 254v371h139q180 0 272.5 -42t92.5 -143q0 -45 -18.5 -79.5t-61.5 -58 t-114.5 -36t-180.5 -12.5h-129zM430 868v312h127q166 0 240.5 -34t74.5 -120q0 -84 -70.5 -121t-230.5 -37h-141z" />
<glyph unicode="C" horiz-adv-x="1198" d="M98 721q0 -182 57.5 -321.5t154 -233.5t224.5 -143.5t269 -49.5q96 0 180 21.5t133 44.5l-84 242q-29 -10 -91 -24.5t-132 -14.5q-92 0 -167 32.5t-127 94t-80.5 148.5t-28.5 196q0 219 108.5 346t298.5 127q20 0 49 -3t58.5 -8.5t59.5 -13.5t52 -16l80 268 q-37 16 -119 35.5t-196 19.5q-139 0 -265 -49t-222.5 -144t-154 -234.5t-57.5 -319.5z" />
<glyph unicode="D" horiz-adv-x="1394" d="M152 0h260q197 0 359.5 39t280 125t183 223t65.5 332q0 197 -65.5 334t-183 224t-281.5 127t-358 40h-260v-1444zM451 264v901h96q223 0 336.5 -117.5t113.5 -334.5t-113.5 -333t-336.5 -116h-96z" />
<glyph unicode="E" horiz-adv-x="1183" d="M152 0h921v264h-627v326h494v266h-494v309h621v279h-915v-1444z" />
<glyph unicode="F" horiz-adv-x="1126" d="M152 0h294v524h515v269h-515v372h621v279h-915v-1444z" />
<glyph unicode="G" horiz-adv-x="1366" d="M98 721q0 -182 57.5 -321.5t156 -233.5t228.5 -143.5t277 -49.5q47 0 103.5 6.5t111.5 15.5t104.5 21.5t82.5 26.5v647h-285v-436q-25 -6 -51.5 -10t-59.5 -4q-195 0 -307.5 127t-112.5 346q0 109 32 196.5t90.5 149t141.5 94.5t187 33q25 0 56.5 -3t65.5 -9.5 t66.5 -14.5t55.5 -16l80 268q-43 20 -135.5 38.5t-204.5 18.5q-152 0 -286 -49t-234.5 -144t-160 -234.5t-59.5 -319.5z" />
<glyph unicode="H" horiz-adv-x="1488" d="M152 0h299v594h587v-594h299v1444h-299v-572h-587v572h-299v-1444z" />
<glyph unicode="I" horiz-adv-x="622" d="M162 0h299v1444h-299v-1444z" />
<glyph unicode="J" horiz-adv-x="860" d="M51 10q51 -10 111 -16t119 -6q82 0 160.5 18.5t140 68.5t98.5 139t37 230v1000h-297v-950q0 -70 -10.5 -115t-33 -72.5t-58 -39t-87.5 -11.5q-33 0 -69.5 5t-81.5 11z" />
<glyph unicode="K" horiz-adv-x="1331" d="M152 0h299v514l88 102l417 -616h340l-567 838l524 606h-340l-462 -541v541h-299v-1444z" />
<glyph unicode="L" horiz-adv-x="1124" d="M152 0h919v264h-620v1180h-299v-1444z" />
<glyph unicode="M" horiz-adv-x="1734" d="M111 0h280l49 733l387 -663h62l385 663l51 -733h299l-104 1462h-105l-547 -930l-549 930h-104z" />
<glyph unicode="N" horiz-adv-x="1480" d="M152 0h286v840l803 -850h88v1454h-287v-821l-782 831h-108v-1454z" />
<glyph unicode="O" horiz-adv-x="1550" d="M98 721q0 -170 52.5 -308.5t144.5 -235.5t216 -150.5t265 -53.5t264 53.5t215.5 150.5t144.5 235.5t52 308.5t-52 308t-144.5 235.5t-215 150.5t-264.5 53q-141 0 -265 -53t-216 -150.5t-144.5 -235.5t-52.5 -308zM401 713q0 109 28 195.5t78 148t118.5 95.5t150.5 34 t150.5 -34t118 -95.5t77 -148.5t27.5 -195q0 -109 -27.5 -196t-77 -148.5t-118 -95t-150.5 -33.5t-150.5 33.5t-118.5 95t-78 148.5t-28 196z" />
<glyph unicode="P" horiz-adv-x="1298" d="M152 0h294v395h107q324 0 498 134.5t174 383.5q0 279 -191.5 405t-568.5 126h-313v-1444zM446 659v508h103q207 0 293 -66.5t86 -187.5t-86 -187.5t-293 -66.5h-103z" />
<glyph unicode="Q" horiz-adv-x="1550" d="M98 721q0 -170 52.5 -306t144.5 -232.5t216 -148.5t265 -52q31 0 60.5 3t58.5 7l125 -248h332l-181 362q129 96 205 252t76 363q0 170 -52 308t-144.5 235.5t-215 150.5t-264.5 53q-141 0 -265 -53t-216 -150.5t-144.5 -235.5t-52.5 -308zM401 713q0 109 28 195.5t78 148 t118.5 95.5t150.5 34t150.5 -34t118 -95.5t77 -148.5t27.5 -195q0 -111 -27.5 -198t-79.5 -150l-102 204h-332l164 -329q-82 0 -149.5 34.5t-116.5 96t-77 148.5t-28 194z" />
<glyph unicode="R" horiz-adv-x="1351" d="M152 0h294v424h95q37 0 72.5 2t70.5 6l277 -432h331l-327 510q119 59 181 162.5t62 251.5q0 276 -189.5 398t-565.5 122h-301v-1444zM446 680v487h91q207 0 291.5 -61.5t84.5 -181.5q0 -121 -84 -182.5t-292 -61.5h-91z" />
<glyph unicode="S" horiz-adv-x="1267" d="M74 86q78 -37 212 -70.5t300 -33.5q164 0 276.5 30.5t183 87t102.5 134t32 169.5q0 109 -42 182.5t-109.5 126t-152.5 87.5t-171 65q-57 20 -108.5 41t-90.5 43.5t-61.5 51t-22.5 67.5q0 70 62.5 97.5t158.5 27.5q100 0 197.5 -16.5t181.5 -45.5l80 261q-20 8 -59 21 t-94.5 23.5t-125 18.5t-149.5 8q-117 0 -218.5 -21.5t-175 -68.5t-115.5 -125t-42 -190q0 -109 42 -183.5t108.5 -126t151.5 -86t171 -65.5q57 -20 108.5 -40.5t90.5 -43.5t62.5 -52.5t23.5 -68.5q0 -78 -64.5 -111.5t-183.5 -33.5q-74 0 -143.5 9t-130 23.5t-110.5 31 t-85 30.5z" />
<glyph unicode="T" horiz-adv-x="1267" d="M53 1165h432v-1165h299v1165h430v279h-1161v-279z" />
<glyph unicode="U" horiz-adv-x="1464" d="M145 578q0 -299 153.5 -453t432.5 -154q274 0 431 155t157 452v866h-289v-844q0 -182 -71.5 -271t-223.5 -89q-154 0 -222.5 89t-68.5 271v844h-299v-866z" />
<glyph unicode="V" horiz-adv-x="1404" d="M20 1444l635 -1460h105l622 1460h-295l-370 -905l-381 905h-316z" />
<glyph unicode="W" horiz-adv-x="1941" d="M20 1444l568 -1462h80l303 796l305 -796h80l565 1462h-297l-319 -848l-295 790h-70l-291 -778l-315 836h-314z" />
<glyph unicode="X" horiz-adv-x="1376" d="M51 0h297l309 539l334 -539h334l-461 741l416 703h-295l-268 -467l-289 467h-332l416 -670z" />
<glyph unicode="Y" horiz-adv-x="1357" d="M20 1444l510 -942v-502h297v518l508 926h-311l-342 -623l-336 623h-326z" />
<glyph unicode="Z" horiz-adv-x="1263" d="M63 0h1121v264h-660l658 1129v51h-1047v-279h578l-650 -1112v-53z" />
<glyph unicode="[" horiz-adv-x="825" d="M150 -154h577v232h-295v1280h295v241h-577v-1753z" />
<glyph unicode="\" horiz-adv-x="1001" d="M43 1444l639 -1444h274l-637 1444h-276z" />
<glyph unicode="]" horiz-adv-x="825" d="M98 78v-232h578v1753h-578v-241h295v-1280h-295z" />
<glyph unicode="^" horiz-adv-x="972" d="M141 575h693v228h-693v-228z" />
<glyph unicode="_" horiz-adv-x="958" d="M-43 -113v-227h1044v227h-1044z" />
<glyph unicode="`" horiz-adv-x="1134" d="M299 1436l213 -373h205l-113 373h-305z" />
<glyph unicode="a" d="M70 260q0 -59 21.5 -109.5t58 -86t89 -56t113.5 -20.5q100 0 174 25.5t146 64.5l16 -78h238v539q0 119 -22.5 199.5t-67.5 131t-115 73t-162 22.5q-66 0 -126 -6.5t-111.5 -15.5t-92.5 -20.5t-65 -21.5l51 -227q27 8 63.5 16t76.5 15.5t81 11.5t76 4q76 0 101.5 -25 t35.5 -78q-127 -2 -232.5 -21t-183 -61t-120.5 -110t-43 -166zM348 303q0 53 73 83t232 34v-135q-47 -25 -102 -42.5t-115 -17.5q-88 0 -88 78z" />
<glyph unicode="b" horiz-adv-x="1134" d="M129 0h240l12 51q53 -29 121.5 -46t152.5 -17q100 0 177 39t128.5 105.5t77 155.5t25.5 191t-25.5 190.5t-77 154t-128 103.5t-177.5 38q-59 0 -122.5 -14.5t-126.5 -47.5v565h-277v-1468zM406 262v404q39 16 81.5 26t77.5 10q113 0 164 -65.5t51 -163.5 q0 -100 -52 -167.5t-163 -67.5q-49 0 -87 7t-72 17z" />
<glyph unicode="c" horiz-adv-x="868" d="M68 477q0 -127 42 -220t109.5 -152.5t153.5 -88t176 -28.5q78 0 146.5 15t113.5 36l-74 229q-35 -14 -77 -23t-89 -9q-98 0 -157.5 62t-59.5 177q0 117 61.5 178.5t155.5 61.5q41 0 84 -9.5t74 -21.5l76 244q-47 23 -114.5 36t-143.5 13q-84 0 -169 -29.5t-153.5 -91 t-111.5 -156t-43 -223.5z" />
<glyph unicode="d" horiz-adv-x="1132" d="M70 475q0 -102 25.5 -191t77.5 -155t128 -103.5t178 -37.5q61 0 132 17.5t139 55.5l12 -61h244v1468h-279v-555q-49 23 -112.5 37.5t-135.5 14.5q-102 0 -178 -39t-128 -105.5t-77.5 -156t-25.5 -189.5zM352 467q0 100 53.5 167.5t163.5 67.5q47 0 85 -7t73 -17v-404 q-41 -16 -82 -26t-76 -10q-113 0 -165 65.5t-52 163.5z" />
<glyph unicode="e" horiz-adv-x="1015" d="M68 481q0 -125 36.5 -218t104 -154.5t161 -91t205.5 -29.5q100 0 188.5 20.5t135.5 42.5l-61 225q-18 -8 -48 -16t-65 -15t-71 -11.5t-66 -4.5q-199 0 -234 158h596q0 172 -34.5 285.5t-94 181.5t-137.5 95.5t-164 27.5q-82 0 -163 -31t-145.5 -92t-104 -154.5 t-39.5 -218.5zM352 588q31 160 170 160q68 0 107 -38t47 -122h-324z" />
<glyph unicode="f" horiz-adv-x="751" d="M41 721h168v-721h276v721h224v244h-224v110q0 82 36 112t95 30q23 0 48.5 -4.5t54.5 -8.5l47 242q-86 22 -180 22h-8q-72 0 -138.5 -17t-118 -57t-82 -106.5t-30.5 -167.5v-155h-168v-244z" />
<glyph unicode="g" horiz-adv-x="1120" d="M63 -125q0 -66 26 -116t83 -84.5t151.5 -52t229.5 -17.5q258 0 399.5 82t141.5 241q0 94 -43 151.5t-113 89.5t-158 43t-178 17q-117 8 -176 15.5t-59 42.5q0 29 18 57q88 -25 182 -25q80 0 160 18.5t142.5 57.5t101.5 101.5t39 150.5q0 78 -31 134.5t-84 97.5l182 172 h-313l-68 -86q-66 12 -129 12q-80 0 -158.5 -19.5t-141 -59.5t-101.5 -102.5t-39 -148.5q0 -72 26.5 -127t71.5 -94q-47 -35 -80.5 -86t-33.5 -104q0 -102 71 -154q-49 -39 -84 -90t-35 -117zM338 -102q0 65 49 118q45 -4 93 -7t95 -7q106 -6 175 -22.5t69 -73.5 q0 -53 -58.5 -85t-203.5 -32q-125 0 -172 24.5t-47 84.5zM412 633q0 61 42 89t113 28q72 0 115 -28t43 -89q0 -63 -43 -91t-115 -28t-113.5 27.5t-41.5 91.5z" />
<glyph unicode="h" horiz-adv-x="1138" d="M129 0h277v664q37 14 85 25t113 11q84 0 112.5 -48t28.5 -154v-498h277v559q0 199 -80 302.5t-246 103.5q-82 0 -159.5 -19.5t-130.5 -42.5v565h-277v-1468z" />
<glyph unicode="i" horiz-adv-x="555" d="M109 1243q0 -33 13 -62.5t35.5 -52t53 -36t65.5 -13.5q33 0 63 13.5t53.5 36t37.5 52t14 62.5q0 37 -14 68.5t-37.5 55.5t-53.5 37t-63 13q-70 0 -118.5 -50t-48.5 -124zM137 0h279v965h-279v-965z" />
<glyph unicode="j" horiz-adv-x="555" d="M-100 -371q35 -10 77.5 -16t85.5 -6q68 0 131.5 16.5t112.5 56t79 107.5t30 168v1010h-279v-967q0 -84 -26.5 -111.5t-71.5 -27.5q-27 0 -50.5 3t-49.5 7zM109 1243q0 -33 13 -62.5t35.5 -52t53 -36t65.5 -13.5q33 0 63 13.5t53.5 36t37.5 52t14 62.5q0 37 -14 68.5 t-37.5 55.5t-53.5 37t-63 13q-70 0 -118.5 -50t-48.5 -124z" />
<glyph unicode="k" horiz-adv-x="1073" d="M129 0h277v340l65 68l272 -408h312l-400 596l361 369h-303l-307 -322v830h-277v-1473z" />
<glyph unicode="l" horiz-adv-x="555" d="M137 0h279v1468h-279v-1468z" />
<glyph unicode="m" horiz-adv-x="1726" d="M129 0h277v664q35 14 80.5 25t111.5 11q47 0 73.5 -11t40 -35.5t16.5 -63.5t3 -92v-498h279v590q0 18 -1 36.5t-3 35.5q37 14 82 26t110 12q47 0 73.5 -11t40 -35.5t16.5 -63.5t3 -92v-498h279v559q0 199 -72 302.5t-248 103.5q-84 0 -180 -27t-182 -66q-76 92 -238 93 q-90 0 -171 -22.5t-134 -49.5l-14 72h-242v-965z" />
<glyph unicode="n" horiz-adv-x="1138" d="M129 0h277v664q37 14 85 25t113 11q84 0 112.5 -48t28.5 -154v-498h277v559q0 199 -80 302.5t-246 103.5q-90 0 -174 -22.5t-137 -49.5l-14 72h-242v-965z" />
<glyph unicode="o" horiz-adv-x="1114" d="M68 477q0 -127 42 -219t110.5 -152.5t156.5 -89t178 -28.5t178 28.5t158 89t113 152.5t43 219t-43 221.5t-113 155.5t-158 92t-178 31t-178 -31t-156.5 -92t-110.5 -155.5t-42 -221.5zM350 473q0 111 59.5 176.5t145.5 65.5q43 0 81 -17.5t66.5 -49.5t45 -76t16.5 -99 t-16.5 -99t-45 -75t-66.5 -47t-81 -16q-86 0 -145.5 63t-59.5 174z" />
<glyph unicode="p" horiz-adv-x="1134" d="M129 -385h277v424q49 -23 112.5 -37t136.5 -14q100 0 177 39t128.5 105.5t77 155.5t25.5 191t-25.5 190.5t-77 154t-128 103.5t-177.5 38q-63 0 -132.5 -17.5t-137.5 -54.5l-14 72h-242v-1350zM406 262v404q39 16 81.5 26t77.5 10q113 0 164 -65.5t51 -163.5 q0 -100 -52 -167.5t-163 -67.5q-49 0 -86.5 7t-72.5 17z" />
<glyph unicode="q" horiz-adv-x="1132" d="M70 475q0 -102 25.5 -191t77.5 -155t128 -103.5t178 -37.5q57 0 121 14t127 47v-434h279v1350h-238l-14 -62q-53 27 -123 44.5t-152 17.5q-102 0 -178 -39t-128 -105.5t-77.5 -156t-25.5 -189.5zM352 467q0 100 53.5 167.5t163.5 67.5q47 0 85 -7t73 -17v-404 q-41 -16 -82 -26t-76 -10q-113 0 -165 65.5t-52 163.5z" />
<glyph unicode="r" horiz-adv-x="761" d="M129 0h277v612q53 31 127.5 56.5t166.5 42.5v270q-92 -18 -176 -52t-135 -65l-18 101h-242v-965z" />
<glyph unicode="s" horiz-adv-x="1001" d="M66 57q25 -12 65.5 -24.5t94 -22.5t114.5 -16t129 -6q231 0 346 79.5t115 229.5q0 88 -37 142.5t-93.5 87t-124 48t-128.5 25.5q-92 16 -131 29.5t-39 46.5q0 31 34.5 45t120.5 14q31 0 70 -4t77 -10t73.5 -15.5t60.5 -17.5l66 232q-63 23 -154.5 40t-196.5 17 q-205 0 -314.5 -79t-109.5 -226q0 -90 35 -145.5t89.5 -88t120 -49t126.5 -24.5q92 -14 137 -27.5t45 -48.5q0 -39 -42 -53.5t-142 -14.5q-43 0 -92 6t-95 15.5t-86 20.5t-65 22z" />
<glyph unicode="t" horiz-adv-x="802" d="M31 721h151v-379q0 -104 23.5 -173t66.5 -109t103.5 -56t134.5 -16q66 0 124 7t93 17l-27 228q-29 -4 -54 -7.5t-52 -3.5q-76 0 -105.5 30t-29.5 118v344h241v244h-241v305h-277v-305h-151v-244z" />
<glyph unicode="u" horiz-adv-x="1132" d="M117 395q0 -201 79.5 -304t245.5 -103q88 0 171 21.5t137 47.5l10 -57h244v965h-277v-684q-35 -14 -83 -24.5t-107 -10.5q-86 0 -115 47t-29 156v516h-276v-570z" />
<glyph unicode="v" horiz-adv-x="1048" d="M16 965l441 -977h133l442 977h-276l-224 -510l-221 510h-295z" />
<glyph unicode="w" horiz-adv-x="1505" d="M16 965l408 -977h90l240 512l237 -512h88l410 977h-258l-199 -490l-219 481h-82l-219 -483l-199 492h-297z" />
<glyph unicode="x" horiz-adv-x="995" d="M20 0h275l184 293l193 -293h303l-326 500l303 465h-274l-164 -260l-168 260h-303l303 -467z" />
<glyph unicode="y" horiz-adv-x="1048" d="M16 965l359 -949l-162 -401h274l545 1350h-274l-234 -580l-217 580h-291z" />
<glyph unicode="z" horiz-adv-x="999" d="M68 0h866v229h-436l417 686v50h-792v-244h358l-413 -676v-45z" />
<glyph unicode="{" horiz-adv-x="917" d="M25 606h122q57 0 89 -35.5t22 -95.5l-31 -196q-35 -217 107.5 -327t423.5 -110h59v232q-104 0 -167.5 11t-96.5 39t-39 76t6 119l23 156q16 106 -32 166.5t-140 77.5q92 18 140 79.5t32 168.5l-23 155q-12 72 -5 118t40 71.5t96.5 36t165.5 10.5v241h-59 q-141 0 -248 -27.5t-176.5 -82.5t-97 -137t-11.5 -189l33 -198q10 -55 -21.5 -93t-89.5 -38h-122v-228z" />
<glyph unicode="|" horiz-adv-x="636" d="M176 -154h281v1753h-281v-1753z" />
<glyph unicode="}" horiz-adv-x="917" d="M100 76v-234h62q283 0 423 110.5t107 326.5l-30 198q-8 59 21.5 95t86.5 36h123v228h-123q-57 0 -87 34.5t-21 94.5l30 198q33 217 -108.5 326.5t-421.5 109.5h-62v-243q104 0 168 -9.5t96.5 -36t39 -71.5t-6.5 -117l-22 -155q-16 -106 32 -168t142 -80 q-94 -16 -142.5 -76.5t-31.5 -167.5l22 -156q12 -72 6 -118.5t-38.5 -74.5t-96 -39t-168.5 -11z" />
<glyph unicode="~" horiz-adv-x="1134" d="M188 1108l205 -47q12 61 29.5 84.5t40.5 23.5q20 0 49 -16t62.5 -34.5t70.5 -35t74 -16.5q49 0 84 19.5t61.5 58.5t46 98.5t35.5 138.5l-209 41q-12 -59 -27.5 -84.5t-41.5 -25.5q-20 0 -48 15t-62 34.5t-70.5 35t-73.5 15.5q-86 0 -139.5 -69.5t-86.5 -235.5z" />
<glyph unicode="&#xa1;" horiz-adv-x="770" d="M211 887q0 -76 49 -126t125 -50q72 0 123 50t51 126q0 80 -51 129t-123 49q-76 0 -125 -49t-49 -129zM244 -389h282v1010h-282v-1010z" />
<glyph unicode="&#xa2;" horiz-adv-x="874" d="M74 477q0 -109 30.5 -191.5t82 -142t120 -95.5t142.5 -50v-178h159v170q63 4 117.5 18.5t91.5 30.5l-76 227q-27 -10 -60.5 -18t-72.5 -12v477q35 -4 68 -11.5t59 -17.5l76 244q-82 37 -203 47v147h-159v-155q-72 -16 -139.5 -53t-120 -97.5t-84 -145.5t-31.5 -194z M358 475q0 72 25 122t66 79v-404q-41 31 -66 82.5t-25 120.5z" />
<glyph unicode="&#xa3;" horiz-adv-x="1126" d="M33 586h186q4 -29 7 -54.5t3 -52.5q0 -57 -11 -107t-33.5 -100.5t-57.5 -103.5t-84 -115v-53h1001v252h-577q23 41 39 91t16 132q0 55 -12 111h362v221h-421q-16 53 -26.5 103.5t-10.5 97.5q0 82 58 121.5t187 39.5q37 0 77 -4t80 -10t75 -14t59 -17l70 254 q-63 27 -169 46.5t-216 19.5q-104 0 -197.5 -22.5t-164 -70.5t-111.5 -121t-41 -171q0 -59 13 -123t30 -129h-131v-221z" />
<glyph unicode="&#xa4;" horiz-adv-x="1263" d="M49 463h219q33 -115 94.5 -203t144.5 -148.5t182 -91t208 -30.5q92 0 171 19.5t126 41.5l-78 232q-31 -10 -88 -24.5t-125 -14.5q-121 0 -209 57t-135 162h414v188h-457q-2 14 -2 27v31q0 23 1 42t3 37h455v185h-406q49 98 135 149.5t205 51.5q41 0 101.5 -10.5 t107.5 -28.5l74 254q-35 16 -110.5 35.5t-186.5 19.5q-106 0 -204.5 -32t-180.5 -91t-144.5 -147.5t-95.5 -200.5h-219v-185h187q-2 -16 -3 -34v-37v-33q0 -16 3 -33h-187v-188z" />
<glyph unicode="&#xa5;" horiz-adv-x="1323" d="M49 1434l340 -609h-272v-225h399l8 -14v-119h-407v-225h407v-242h279v242h401v225h-401v133h401v225h-278l348 609h-281l-317 -590l-324 590h-303z" />
<glyph unicode="&#xa6;" horiz-adv-x="636" d="M176 -154h281v752h-281v-752zM176 848h281v751h-281v-751z" />
<glyph unicode="&#xa7;" horiz-adv-x="1087" d="M84 893q0 -217 153.5 -352t438.5 -176q-55 -66 -177 -106t-333 -42v-227q201 2 356.5 40t262 108.5t161.5 172t55 230.5q0 215 -150.5 348t-430.5 176q59 63 185 98t337 39v242q-203 -2 -362.5 -41t-269 -109.5t-168 -172t-58.5 -228.5zM350 858q182 -27 279.5 -97.5 t105.5 -187.5q-180 29 -277.5 98.5t-107.5 186.5z" />
<glyph unicode="&#xa8;" horiz-adv-x="1136" d="M223 1231q0 -59 45.5 -104.5t106.5 -45.5q29 0 56.5 12.5t49 33t33.5 47t12 57.5q0 33 -12 61.5t-33.5 50t-49.5 34t-56 12.5q-61 0 -106.5 -46.5t-45.5 -111.5zM608 1231q0 -31 12.5 -57.5t34 -47t49 -33t58.5 -12.5q29 0 56.5 12.5t49 33t33.5 47t12 57.5 q0 33 -12 61.5t-33.5 50t-49 34t-56.5 12.5q-61 0 -107.5 -46.5t-46.5 -111.5z" />
<glyph unicode="&#xa9;" horiz-adv-x="1509" d="M82 719q0 -158 53 -294t144.5 -236.5t214.5 -159t262 -58.5q137 0 260 58.5t214 159t144 236.5t53 294t-53 295t-144 238.5t-214 159.5t-260 58q-139 0 -262 -58t-214.5 -159.5t-144.5 -238.5t-53 -295zM229 719q0 129 41 239.5t112 193.5t167 130t207 47t207 -47 t166.5 -130t111.5 -193.5t41 -239.5q0 -127 -41 -238.5t-111.5 -193.5t-166.5 -129t-207 -47t-207 47t-167 129t-112 193.5t-41 238.5zM369 719q0 -113 34.5 -199t95 -144.5t139.5 -88t165 -29.5q59 0 112.5 14.5t92.5 32.5l-58 168q-29 -12 -65.5 -20.5t-77.5 -8.5 q-106 0 -169 73t-63 198t62.5 197.5t173.5 72.5q23 0 62.5 -6t76.5 -21l56 185q-31 12 -83.5 23.5t-121.5 11.5q-86 0 -164 -30t-138.5 -88.5t-95 -144.5t-34.5 -196z" />
<glyph unicode="&#xaa;" horiz-adv-x="927" d="M121 872q0 -98 63.5 -154t161.5 -56q76 0 131 20t107 49l8 -59h209v434q0 186 -72 261t-219 75q-104 0 -189 -17.5t-128 -33.5l43 -177q47 14 113.5 26.5t119.5 12.5q59 0 79.5 -25.5t24.5 -78.5q-104 -4 -188 -20.5t-142.5 -48t-90 -83t-31.5 -125.5zM139 391h662v197 h-662v-197zM342 899q0 47 52 74.5t179 34.5v-121q-35 -18 -75.5 -32.5t-83.5 -14.5q-33 0 -52.5 15t-19.5 44z" />
<glyph unicode="&#xab;" horiz-adv-x="1269" d="M113 483l237 -483h277l-238 483l238 482h-277zM623 483l237 -483h279l-238 483l238 482h-279z" />
<glyph unicode="&#xac;" horiz-adv-x="1511" d="M33 965l452 -385l-174 -611l445 379l442 -379l-174 609l455 387h-566l-159 559l-160 -559h-561z" />
<glyph unicode="&#xad;" horiz-adv-x="954" d="M139 469h676v260h-676v-260z" />
<glyph unicode="&#xae;" horiz-adv-x="1509" d="M82 719q0 -158 53 -294t144.5 -236.5t214.5 -159t262 -58.5q137 0 260 58.5t214 159t144 236.5t53 294t-53 295t-144 238.5t-214 159.5t-260 58q-139 0 -262 -58t-214.5 -159.5t-144.5 -238.5t-53 -295zM229 719q0 129 41 239.5t112 193.5t167 130t207 47t207 -47 t166.5 -130t111.5 -193.5t41 -239.5q0 -127 -41 -238.5t-111.5 -193.5t-166.5 -129t-207 -47t-207 47t-167 129t-112 193.5t-41 238.5zM457 319h182v236h41h33q16 0 32 2l152 -238h207l-182 285q135 72 135 236q0 156 -104.5 224.5t-319.5 68.5h-176v-814zM639 709v256h47 q115 0 157 -31t42 -96q0 -66 -42 -97.5t-157 -31.5h-47z" />
<glyph unicode="&#xaf;" horiz-adv-x="1134" d="M289 1075h555v223h-555v-223z" />
<glyph unicode="&#xb0;" horiz-adv-x="972" d="M100 1001q0 -96 31 -178t83 -140t123.5 -91t151.5 -33q78 0 148 33t122 91t82.5 140t30.5 178t-29.5 178.5t-81.5 140.5t-122 91t-150 33t-151.5 -33t-123.5 -91t-83 -140t-31 -179zM297 1001q0 51 13.5 96.5t39 79t61 53t78.5 19.5t78 -19.5t59.5 -53t38 -78.5t13.5 -97 q0 -51 -13.5 -96t-38 -78.5t-59.5 -53t-78 -19.5t-78.5 19.5t-61 53t-39 78.5t-13.5 96z" />
<glyph unicode="&#xb1;" horiz-adv-x="1855" d="M41 721h168v-721h276v721h338v-721h279v721h176v244h-176v47q0 53 8 91t33.5 62.5t73 35.5t122.5 11q47 0 101 -6v-1206h278v1442h-186q-45 10 -102.5 18t-133.5 8q-250 0 -361.5 -108.5t-111.5 -349.5v-45h-338v79q0 61 25 86t61 25q23 0 42.5 -4t43.5 -8l48 241 q-43 10 -85 16.5t-92 6.5q-143 0 -231 -84t-88 -264v-94h-168v-244z" />
<glyph unicode="&#xb2;" horiz-adv-x="907" d="M100 512h682v209h-288l30 37q49 61 88 112.5t66 97.5t41 92t14 97q0 147 -98 217t-252 70q-141 0 -272 -51l53 -215q53 16 107.5 26t97.5 10q125 0 125 -75q0 -29 -10.5 -57.5t-34 -65.5t-64.5 -87t-102 -124l-183 -217v-76z" />
<glyph unicode="&#xb3;" horiz-adv-x="835" d="M100 723l11 -221q315 0 479 80t164 262q0 66 -21.5 114t-55.5 79.5t-75 52t-78 30.5l191 240v74h-615v-226h285l-121 -153v-70q51 -4 96.5 -12t79 -23.5t53 -38t19.5 -57.5q0 -39 -20.5 -64.5t-68.5 -40t-127 -20.5t-196 -6z" />
<glyph unicode="&#xb4;" horiz-adv-x="1134" d="M420 1063h205l211 373h-306z" />
<glyph unicode="&#xb6;" horiz-adv-x="1165" d="M51 971q0 -59 13.5 -118.5t46 -113t86 -98.5t131.5 -78v-563h280v508q20 -2 39 -2h43h55v-506h281v1434h-319q-197 0 -324 -39t-200.5 -103.5t-102.5 -148.5t-29 -172zM342 963q0 59 20.5 102t67.5 70.5t124 40t191 12.5v-449q-115 0 -191.5 12.5t-123.5 39t-67.5 69.5 t-20.5 103z" />
<glyph unicode="&#xb7;" horiz-adv-x="608" d="M117 707q0 -88 53 -141.5t131 -53.5q82 0 137.5 53t55.5 142q0 80 -55.5 135t-137.5 55q-39 0 -72.5 -14.5t-58.5 -41t-39 -61.5t-14 -73z" />
<glyph unicode="&#xb8;" horiz-adv-x="1134" d="M371 -313h297l88 350h-213z" />
<glyph unicode="&#xb9;" horiz-adv-x="745" d="M147 1208h132v-700h241v926h-373v-226z" />
<glyph unicode="&#xba;" horiz-adv-x="983" d="M102 1044q0 -98 32 -171.5t86 -122t124 -73t148 -24.5q76 0 146.5 24.5t124.5 73t86 122t32 171.5t-32 173t-86 125.5t-125 76t-146 25.5q-78 0 -148 -24.5t-124 -75t-86 -125t-32 -175.5zM137 393h711v195h-711v-195zM334 1042q0 86 44 142.5t114 56.5t114.5 -56.5 t44.5 -142.5t-44.5 -140t-114.5 -54t-114 54t-44 140z" />
<glyph unicode="&#xbb;" horiz-adv-x="1269" d="M133 0h277l237 483l-237 482h-277l236 -482zM643 0h279l235 483l-235 482h-279l238 -482z" />
<glyph unicode="&#xbc;" horiz-adv-x="1918" d="M147 1208h132v-700h241v926h-373v-226zM440 0h222l712 1434h-219zM1012 182h409v-182h236v182h141v193h-141v557h-172l-473 -615v-135zM1266 375l155 203v-203h-155z" />
<glyph unicode="&#xbd;" horiz-adv-x="2011" d="M147 1208h132v-700h241v926h-373v-226zM440 0h222l712 1434h-219zM1202 0h682v209h-289l31 37q49 61 88 112.5t65.5 97.5t41 92t14.5 97q0 147 -98.5 217t-251.5 70q-141 0 -273 -51l54 -215q53 16 106 26t98 10q125 0 125 -75q0 -29 -10 -57.5t-33.5 -65.5t-64.5 -87 t-103 -124l-182 -217v-76z" />
<glyph unicode="&#xbe;" horiz-adv-x="1904" d="M100 723l11 -221q315 0 479 80t164 262q0 66 -21.5 114t-55.5 79.5t-75 52t-78 30.5l191 240v74h-615v-226h285l-121 -153v-70q51 -4 96.5 -12t79 -23.5t53 -38t19.5 -57.5q0 -39 -20.5 -64.5t-68.5 -40t-127 -20.5t-196 -6zM514 0h219l715 1434h-221zM1059 182h409v-182 h236v182h141v193h-141v557h-172l-473 -615v-135zM1313 375l155 203v-203h-155z" />
<glyph unicode="&#xbf;" horiz-adv-x="1230" d="M141 49q0 -135 64.5 -223t165 -138t221 -69.5t233.5 -19.5q74 0 140.5 6t115.5 16l-28 260q-86 -12 -197 -12q-78 0 -153.5 11t-136 36t-97.5 64.5t-37 99.5q0 111 108.5 164t329.5 71v316h-288v-139q-74 -16 -152 -46t-142.5 -81.5t-105.5 -128t-41 -187.5zM555 887 q0 -76 50 -125t126 -49q72 0 122 49t50 125q0 80 -50 129t-122 49q-76 0 -126 -49t-50 -129z" />
<glyph unicode="&#xc0;" horiz-adv-x="1404" d="M20 0h297l91 219h569l92 -219h313l-632 1460h-105zM434 1884l213 -373h205l-113 373h-305zM506 461l182 444l186 -444h-368z" />
<glyph unicode="&#xc1;" horiz-adv-x="1404" d="M20 0h297l91 219h569l92 -219h313l-632 1460h-105zM506 461l182 444l186 -444h-368zM555 1511h205l211 373h-305z" />
<glyph unicode="&#xc2;" horiz-adv-x="1404" d="M20 0h297l91 219h569l92 -219h313l-632 1460h-105zM342 1505h213l150 129l147 -129h211l-330 416h-61zM506 461l182 444l186 -444h-368z" />
<glyph unicode="&#xc3;" horiz-adv-x="1404" d="M20 0h297l91 219h569l92 -219h313l-632 1460h-105zM324 1556l204 -47q12 61 29.5 85t40.5 24q20 0 49 -16.5t62.5 -35t70.5 -34.5t74 -16q49 0 84 19t61.5 58t46 98.5t35.5 139.5l-209 41q-12 -59 -27.5 -85t-41.5 -26q-20 0 -48 15.5t-62 35t-70.5 35t-73.5 15.5 q-86 0 -139.5 -70t-85.5 -236zM506 461l182 444l186 -444h-368z" />
<glyph unicode="&#xc4;" horiz-adv-x="1404" d="M20 0h297l91 219h569l92 -219h313l-632 1460h-105zM137 1286q0 -31 12.5 -57.5t34 -47t48 -32.5t57.5 -12t58.5 12t49 32.5t33.5 47t12 57.5q0 33 -12 61.5t-33.5 50t-49.5 34t-58 12.5q-59 0 -105.5 -46t-46.5 -112zM506 461l182 444l186 -444h-368zM963 1286 q0 -31 12 -57.5t32.5 -47t49 -32.5t59.5 -12q29 0 56.5 12t49 32.5t34 47t12.5 57.5q0 33 -12.5 61.5t-34 50t-49 34t-56.5 12.5q-63 0 -108 -46t-45 -112z" />
<glyph unicode="&#xc5;" horiz-adv-x="1404" d="M20 0h297l91 219h569l92 -219h313l-591 1366q57 29 94 86t37 133q0 53 -18.5 98.5t-49.5 78t-72 51t-88 18.5t-88 -18.5t-72.5 -51t-50 -78t-18.5 -98.5q0 -78 40 -136t99 -85zM506 461l182 444l186 -444h-368zM588 1585q0 55 31.5 90t74.5 35t75 -35t32 -90 q0 -53 -32 -87t-75 -34t-74.5 34t-31.5 87z" />
<glyph unicode="&#xc6;" horiz-adv-x="1921" d="M10 0h299l160 281h424v-281h917v264h-626v326h493v266h-493v309h620v279h-968zM596 514l297 543v-543h-297z" />
<glyph unicode="&#xc7;" horiz-adv-x="1198" d="M98 721q0 -143 36 -260t100.5 -207t150.5 -151.5t188 -94.5l-157 -321h297l71 286h19q96 0 180 21.5t133 44.5l-84 242q-29 -10 -91 -24.5t-132 -14.5q-92 0 -167 32.5t-127 94t-80.5 148.5t-28.5 196q0 219 108.5 346t298.5 127q20 0 49 -3t58.5 -8.5t59.5 -13.5t52 -16 l80 268q-37 16 -119 35.5t-196 19.5q-139 0 -265 -49t-222.5 -144t-154 -234.5t-57.5 -319.5z" />
<glyph unicode="&#xc8;" horiz-adv-x="1183" d="M152 0h921v264h-627v326h494v266h-494v309h621v279h-915v-1444zM326 1884l213 -373h204l-112 373h-305z" />
<glyph unicode="&#xc9;" horiz-adv-x="1183" d="M152 0h921v264h-627v326h494v266h-494v309h621v279h-915v-1444zM446 1511h205l211 373h-305z" />
<glyph unicode="&#xca;" horiz-adv-x="1183" d="M152 0h921v264h-627v326h494v266h-494v309h621v279h-915v-1444zM233 1511h213l150 129l147 -129h211l-329 416h-62z" />
<glyph unicode="&#xcb;" horiz-adv-x="1183" d="M152 0h921v264h-627v326h494v266h-494v309h621v279h-915v-1444zM250 1679q0 -59 45 -104t106 -45q29 0 56.5 12t49 32.5t34 47.5t12.5 57q0 33 -12.5 61.5t-34 50t-49 34t-56.5 12.5q-61 0 -106 -46t-45 -112zM635 1679q0 -31 12 -57.5t33.5 -47t49 -32.5t58.5 -12 q29 0 56.5 12t49 32.5t34 47.5t12.5 57q0 33 -12.5 61.5t-34 50t-49 34t-56.5 12.5q-61 0 -107 -46t-46 -112z" />
<glyph unicode="&#xcc;" horiz-adv-x="622" d="M6 1884l213 -373h205l-113 373h-305zM162 0h299v1444h-299v-1444z" />
<glyph unicode="&#xcd;" horiz-adv-x="622" d="M162 0h299v1444h-299v-1444zM199 1511h204l211 373h-305z" />
<glyph unicode="&#xce;" horiz-adv-x="622" d="M-49 1511h213l149 129l148 -129h211l-330 416h-61zM162 0h299v1444h-299v-1444z" />
<glyph unicode="&#xcf;" horiz-adv-x="622" d="M-33 1679q0 -59 45.5 -104t106.5 -45q29 0 56.5 12t49 32.5t33.5 47.5t12 57q0 33 -12 61.5t-33.5 50t-49.5 34t-56 12.5q-61 0 -106.5 -46t-45.5 -112zM162 0h299v1444h-299v-1444zM352 1679q0 -31 12.5 -57.5t34 -47t49 -32.5t58.5 -12q29 0 56.5 12t49 32.5t33.5 47.5 t12 57q0 33 -12 61.5t-33.5 50t-49 34t-56.5 12.5q-61 0 -107.5 -46t-46.5 -112z" />
<glyph unicode="&#xd0;" horiz-adv-x="1394" d="M6 606h146v-606h260q197 0 359.5 39t280 125t183 223t65.5 332q0 197 -65.5 334t-183 224t-281.5 127t-358 40h-260v-598h-146v-240zM451 264v342h213v240h-213v319h96q223 0 336.5 -117.5t113.5 -334.5t-113.5 -333t-336.5 -116h-96z" />
<glyph unicode="&#xd1;" horiz-adv-x="1480" d="M152 0h286v840l803 -850h88v1454h-287v-821l-782 831h-108v-1454zM362 1556l205 -47q12 61 29.5 85t40.5 24q20 0 49 -16.5t62.5 -35t70.5 -34.5t74 -16q49 0 84 19t61.5 58t46 98.5t35.5 139.5l-209 41q-12 -59 -27.5 -85t-41.5 -26q-20 0 -48 15.5t-62 35t-70.5 35 t-73.5 15.5q-86 0 -139.5 -70t-86.5 -236z" />
<glyph unicode="&#xd2;" horiz-adv-x="1550" d="M98 721q0 -170 52.5 -308.5t144.5 -235.5t216 -150.5t265 -53.5t264 53.5t215.5 150.5t144.5 235.5t52 308.5t-52 308t-144.5 235.5t-215 150.5t-264.5 53q-141 0 -265 -53t-216 -150.5t-144.5 -235.5t-52.5 -308zM401 713q0 109 28 195.5t78 148t118.5 95.5t150.5 34 t150.5 -34t118 -95.5t77 -148.5t27.5 -195q0 -109 -27.5 -196t-77 -148.5t-118 -95t-150.5 -33.5t-150.5 33.5t-118.5 95t-78 148.5t-28 196zM508 1884l213 -373h205l-113 373h-305z" />
<glyph unicode="&#xd3;" horiz-adv-x="1550" d="M98 721q0 -170 52.5 -308.5t144.5 -235.5t216 -150.5t265 -53.5t264 53.5t215.5 150.5t144.5 235.5t52 308.5t-52 308t-144.5 235.5t-215 150.5t-264.5 53q-141 0 -265 -53t-216 -150.5t-144.5 -235.5t-52.5 -308zM401 713q0 109 28 195.5t78 148t118.5 95.5t150.5 34 t150.5 -34t118 -95.5t77 -148.5t27.5 -195q0 -109 -27.5 -196t-77 -148.5t-118 -95t-150.5 -33.5t-150.5 33.5t-118.5 95t-78 148.5t-28 196zM629 1511h205l210 373h-305z" />
<glyph unicode="&#xd4;" horiz-adv-x="1550" d="M98 721q0 -170 52.5 -308.5t144.5 -235.5t216 -150.5t265 -53.5t264 53.5t215.5 150.5t144.5 235.5t52 308.5t-52 308t-144.5 235.5t-215 150.5t-264.5 53q-141 0 -265 -53t-216 -150.5t-144.5 -235.5t-52.5 -308zM401 713q0 109 28 195.5t78 148t118.5 95.5t150.5 34 t150.5 -34t118 -95.5t77 -148.5t27.5 -195q0 -109 -27.5 -196t-77 -148.5t-118 -95t-150.5 -33.5t-150.5 33.5t-118.5 95t-78 148.5t-28 196zM416 1511h213l149 129l148 -129h211l-330 416h-62z" />
<glyph unicode="&#xd5;" horiz-adv-x="1550" d="M98 721q0 -170 52.5 -308.5t144.5 -235.5t216 -150.5t265 -53.5t264 53.5t215.5 150.5t144.5 235.5t52 308.5t-52 308t-144.5 235.5t-215 150.5t-264.5 53q-141 0 -265 -53t-216 -150.5t-144.5 -235.5t-52.5 -308zM397 1556l205 -47q12 61 29.5 85t40.5 24q20 0 49 -16.5 t62.5 -35t70.5 -34.5t74 -16q49 0 84 19t61.5 58t46 98.5t35.5 139.5l-209 41q-12 -59 -27.5 -85t-41.5 -26q-20 0 -48 15.5t-62 35t-71 35t-73 15.5q-86 0 -139.5 -70t-86.5 -236zM401 713q0 109 28 195.5t78 148t118.5 95.5t150.5 34t150.5 -34t118 -95.5t77 -148.5 t27.5 -195q0 -109 -27.5 -196t-77 -148.5t-118 -95t-150.5 -33.5t-150.5 33.5t-118.5 95t-78 148.5t-28 196z" />
<glyph unicode="&#xd6;" horiz-adv-x="1550" d="M98 721q0 -170 52.5 -308.5t144.5 -235.5t216 -150.5t265 -53.5t264 53.5t215.5 150.5t144.5 235.5t52 308.5t-52 308t-144.5 235.5t-215 150.5t-264.5 53q-141 0 -265 -53t-216 -150.5t-144.5 -235.5t-52.5 -308zM401 713q0 109 28 195.5t78 148t118.5 95.5t150.5 34 t150.5 -34t118 -95.5t77 -148.5t27.5 -195q0 -109 -27.5 -196t-77 -148.5t-118 -95t-150.5 -33.5t-150.5 33.5t-118.5 95t-78 148.5t-28 196zM432 1679q0 -59 45.5 -104t106.5 -45q29 0 56.5 12t49 32.5t33.5 47.5t12 57q0 33 -12 61.5t-33.5 50t-49.5 34t-56 12.5 q-61 0 -106.5 -46t-45.5 -112zM817 1679q0 -31 12.5 -57.5t34 -47t49 -32.5t58.5 -12q29 0 56.5 12t49 32.5t33.5 47.5t12 57q0 33 -12 61.5t-33.5 50t-49.5 34t-56 12.5q-61 0 -107.5 -46t-46.5 -112z" />
<glyph unicode="&#xd7;" horiz-adv-x="1185" d="M156 983l270 -268l-262 -262l168 -168l262 262l268 -268l166 165l-268 269l262 262l-168 168l-262 -262l-268 270z" />
<glyph unicode="&#xd8;" horiz-adv-x="1550" d="M98 721q0 -190 65.5 -340t176.5 -248l-135 -242h201l79 146q137 -63 291 -64q141 0 264 53.5t215.5 150.5t144.5 235.5t52 308.5q0 195 -67.5 346.5t-184.5 249.5l133 237h-205l-79 -143q-127 57 -273 57q-141 0 -265 -53t-216 -150.5t-144.5 -235.5t-52.5 -308zM397 713 q0 111 28 198.5t79 150t119.5 96.5t152.5 34q76 0 135 -27l-428 -772q-41 59 -63.5 140t-22.5 180zM616 272l437 781q47 -61 73.5 -147.5t26.5 -192.5q0 -109 -27.5 -197t-78 -150.5t-120 -96t-151.5 -33.5q-86 0 -160 36z" />
<glyph unicode="&#xd9;" horiz-adv-x="1464" d="M145 578q0 -299 153.5 -453t432.5 -154q274 0 431 155t157 452v866h-289v-844q0 -182 -71.5 -271t-223.5 -89q-154 0 -222.5 89t-68.5 271v844h-299v-866zM463 1884l213 -373h205l-113 373h-305z" />
<glyph unicode="&#xda;" horiz-adv-x="1464" d="M145 578q0 -299 153.5 -453t432.5 -154q274 0 431 155t157 452v866h-289v-844q0 -182 -71.5 -271t-223.5 -89q-154 0 -222.5 89t-68.5 271v844h-299v-866zM584 1511h204l211 373h-305z" />
<glyph unicode="&#xdb;" horiz-adv-x="1464" d="M145 578q0 -299 153.5 -453t432.5 -154q274 0 431 155t157 452v866h-289v-844q0 -182 -71.5 -271t-223.5 -89q-154 0 -222.5 89t-68.5 271v844h-299v-866zM371 1511h213l149 129l148 -129h211l-330 416h-62z" />
<glyph unicode="&#xdc;" horiz-adv-x="1464" d="M145 578q0 -299 153.5 -453t432.5 -154q274 0 431 155t157 452v866h-289v-844q0 -182 -71.5 -271t-223.5 -89q-154 0 -222.5 89t-68.5 271v844h-299v-866zM387 1679q0 -59 45.5 -104t106.5 -45q29 0 56.5 12t49 32.5t33.5 47.5t12 57q0 33 -12 61.5t-33.5 50t-49.5 34 t-56 12.5q-61 0 -106.5 -46t-45.5 -112zM772 1679q0 -31 12.5 -57.5t34 -47t49 -32.5t58.5 -12q29 0 56.5 12t49 32.5t33.5 47.5t12 57q0 33 -12 61.5t-33.5 50t-49.5 34t-56 12.5q-61 0 -107.5 -46t-46.5 -112z" />
<glyph unicode="&#xdd;" horiz-adv-x="1357" d="M20 1444l510 -942v-502h297v518l508 926h-311l-342 -623l-336 623h-326zM530 1511h205l211 373h-305z" />
<glyph unicode="&#xde;" horiz-adv-x="1298" d="M152 0h294v221h107q324 0 498 133t174 385q0 276 -187.5 403.5t-562.5 127.5h-29v174h-294v-1444zM446 485v508h103q207 0 293 -66.5t86 -187.5t-86 -187.5t-293 -66.5h-103z" />
<glyph unicode="&#xdf;" horiz-adv-x="1206" d="M129 0h277v721h325l-174 -299v-53q147 -25 228 -87.5t81 -179.5q0 -121 -107.5 -192.5t-346.5 -83.5l14 -234q158 6 291 39t229 94.5t150.5 150.5t54.5 210q0 92 -24.5 158.5t-65.5 116t-93.5 81t-107.5 52.5l246 415v56h-700v110q0 82 35.5 112t95.5 30q23 0 48 -4.5 t54 -8.5l47 242q-90 23 -188 22q-72 0 -138.5 -17t-118 -57t-82 -106.5t-30.5 -167.5v-1120z" />
<glyph unicode="&#xe0;" d="M70 260q0 -59 21.5 -109.5t58 -86t89 -56t113.5 -20.5q100 0 174 25.5t146 64.5l16 -78h238v539q0 119 -22.5 199.5t-67.5 131t-115 73t-162 22.5q-66 0 -126 -6.5t-111.5 -15.5t-92.5 -20.5t-65 -21.5l51 -227q27 8 63.5 16t76.5 15.5t81 11.5t76 4q76 0 101.5 -25 t35.5 -78q-127 -2 -232.5 -21t-183 -61t-120.5 -110t-43 -166zM250 1436l213 -373h205l-113 373h-305zM348 303q0 53 73 83t232 34v-135q-47 -25 -102 -42.5t-115 -17.5q-88 0 -88 78z" />
<glyph unicode="&#xe1;" d="M70 260q0 -59 21.5 -109.5t58 -86t89 -56t113.5 -20.5q100 0 174 25.5t146 64.5l16 -78h238v539q0 119 -22.5 199.5t-67.5 131t-115 73t-162 22.5q-66 0 -126 -6.5t-111.5 -15.5t-92.5 -20.5t-65 -21.5l51 -227q27 8 63.5 16t76.5 15.5t81 11.5t76 4q76 0 101.5 -25 t35.5 -78q-127 -2 -232.5 -21t-183 -61t-120.5 -110t-43 -166zM348 303q0 53 73 83t232 34v-135q-47 -25 -102 -42.5t-115 -17.5q-88 0 -88 78zM371 1063h204l211 373h-305z" />
<glyph unicode="&#xe2;" d="M70 260q0 -59 21.5 -109.5t58 -86t89 -56t113.5 -20.5q100 0 174 25.5t146 64.5l16 -78h238v539q0 119 -22.5 199.5t-67.5 131t-115 73t-162 22.5q-66 0 -126 -6.5t-111.5 -15.5t-92.5 -20.5t-65 -21.5l51 -227q27 8 63.5 16t76.5 15.5t81 11.5t76 4q76 0 101.5 -25 t35.5 -78q-127 -2 -232.5 -21t-183 -61t-120.5 -110t-43 -166zM158 1063h213l149 129l148 -129h211l-330 416h-62zM348 303q0 53 73 83t232 34v-135q-47 -25 -102 -42.5t-115 -17.5q-88 0 -88 78z" />
<glyph unicode="&#xe3;" d="M70 260q0 -59 21.5 -109.5t58 -86t89 -56t113.5 -20.5q100 0 174 25.5t146 64.5l16 -78h238v539q0 119 -22.5 199.5t-67.5 131t-115 73t-162 22.5q-66 0 -126 -6.5t-111.5 -15.5t-92.5 -20.5t-65 -21.5l51 -227q27 8 63.5 16t76.5 15.5t81 11.5t76 4q76 0 101.5 -25 t35.5 -78q-127 -2 -232.5 -21t-183 -61t-120.5 -110t-43 -166zM139 1108l205 -47q12 61 29.5 84.5t40.5 23.5q20 0 49 -16t62.5 -34.5t70.5 -35t74 -16.5q49 0 83.5 19.5t61.5 58.5t46.5 98.5t35.5 138.5l-209 41q-12 -59 -27.5 -84.5t-42.5 -25.5q-20 0 -47.5 15 t-61.5 34.5t-71 35t-73 15.5q-86 0 -139.5 -69.5t-86.5 -235.5zM348 303q0 53 73 83t232 34v-135q-47 -25 -102 -42.5t-115 -17.5q-88 0 -88 78z" />
<glyph unicode="&#xe4;" d="M70 260q0 -59 21.5 -109.5t58 -86t89 -56t113.5 -20.5q100 0 174 25.5t146 64.5l16 -78h238v539q0 119 -22.5 199.5t-67.5 131t-115 73t-162 22.5q-66 0 -126 -6.5t-111.5 -15.5t-92.5 -20.5t-65 -21.5l51 -227q27 8 63.5 16t76.5 15.5t81 11.5t76 4q76 0 101.5 -25 t35.5 -78q-127 -2 -232.5 -21t-183 -61t-120.5 -110t-43 -166zM174 1231q0 -59 45.5 -104.5t106.5 -45.5q29 0 56.5 12.5t49 33t33.5 47t12 57.5q0 33 -12 61.5t-33.5 50t-49.5 34t-56 12.5q-61 0 -106.5 -46.5t-45.5 -111.5zM348 303q0 53 73 83t232 34v-135 q-47 -25 -102 -42.5t-115 -17.5q-88 0 -88 78zM559 1231q0 -31 12.5 -57.5t34 -47t49 -33t58.5 -12.5q29 0 56.5 12.5t49 33t33.5 47t12 57.5q0 33 -12 61.5t-33.5 50t-49.5 34t-56 12.5q-61 0 -107.5 -46.5t-46.5 -111.5z" />
<glyph unicode="&#xe5;" d="M70 260q0 -59 21.5 -109.5t58 -86t89 -56t113.5 -20.5q100 0 174 25.5t146 64.5l16 -78h238v539q0 119 -22.5 199.5t-67.5 131t-115 73t-162 22.5q-66 0 -126 -6.5t-111.5 -15.5t-92.5 -20.5t-65 -21.5l51 -227q27 8 63.5 16t76.5 15.5t81 11.5t76 4q76 0 101.5 -25 t35.5 -78q-127 -2 -232.5 -21t-183 -61t-120.5 -110t-43 -166zM291 1300q0 -53 18.5 -97t50 -75.5t73.5 -50t87 -18.5t87 18.5t73 50t49.5 75.5t18.5 97t-18.5 98.5t-49.5 78t-72 51t-88 18.5t-88 -18.5t-72.5 -51t-50 -77.5t-18.5 -99zM348 303q0 53 73 83t232 34v-135 q-47 -25 -102 -42.5t-115 -17.5q-88 0 -88 78zM414 1300q0 55 31.5 90t74.5 35t75 -34.5t32 -90.5q0 -53 -32 -86.5t-75 -33.5t-74.5 33.5t-31.5 86.5z" />
<glyph unicode="&#xe6;" horiz-adv-x="1591" d="M72 260q0 -59 20.5 -109.5t58 -86t89 -56t112.5 -20.5q68 0 129.5 13t114.5 33.5t96 45t74 49.5q66 -72 167 -106.5t218 -34.5q100 0 188 20.5t136 42.5l-62 225q-18 -8 -48 -16t-64.5 -15t-70.5 -11.5t-67 -4.5q-57 0 -97 11.5t-67.5 32t-44 50t-24.5 64.5h596 q0 172 -35 285.5t-94.5 181.5t-138 95.5t-164.5 27.5q-72 0 -144.5 -26.5t-132.5 -78.5q-80 92 -258 93q-66 0 -126 -6.5t-111.5 -15.5t-92.5 -20.5t-65 -21.5l51 -227q27 8 63.5 16t76.5 15.5t81 11.5t76 4q70 0 98.5 -27.5t32.5 -75.5q-123 -4 -227.5 -23.5t-181 -60 t-119.5 -108.5t-43 -166zM348 297q0 123 303 133q0 -41 7.5 -77t17.5 -68q-47 -31 -106.5 -50.5t-133.5 -19.5q-88 0 -88 82zM930 588q10 70 49 115t119 45q68 0 106.5 -38t46.5 -122h-321z" />
<glyph unicode="&#xe7;" horiz-adv-x="868" d="M68 477q0 -100 26.5 -178t70.5 -136.5t104 -96.5t128 -58l-157 -321h297l75 303q59 6 110.5 19.5t86.5 29.5l-74 229q-35 -14 -77 -23t-89 -9q-98 0 -157.5 62t-59.5 177q0 117 61.5 178.5t155.5 61.5q41 0 84 -9.5t74 -21.5l76 244q-47 23 -114.5 36t-143.5 13 q-84 0 -169 -29.5t-153.5 -91t-111.5 -156t-43 -223.5z" />
<glyph unicode="&#xe8;" horiz-adv-x="1015" d="M68 481q0 -125 36.5 -218t104 -154.5t161 -91t205.5 -29.5q100 0 188.5 20.5t135.5 42.5l-61 225q-18 -8 -48 -16t-65 -15t-71 -11.5t-66 -4.5q-199 0 -234 158h596q0 172 -34.5 285.5t-94 181.5t-137.5 95.5t-164 27.5q-82 0 -163 -31t-145.5 -92t-104 -154.5 t-39.5 -218.5zM233 1436l213 -373h205l-112 373h-306zM352 588q31 160 170 160q68 0 107 -38t47 -122h-324z" />
<glyph unicode="&#xe9;" horiz-adv-x="1015" d="M68 481q0 -125 36.5 -218t104 -154.5t161 -91t205.5 -29.5q100 0 188.5 20.5t135.5 42.5l-61 225q-18 -8 -48 -16t-65 -15t-71 -11.5t-66 -4.5q-199 0 -234 158h596q0 172 -34.5 285.5t-94 181.5t-137.5 95.5t-164 27.5q-82 0 -163 -31t-145.5 -92t-104 -154.5 t-39.5 -218.5zM352 588q31 160 170 160q68 0 107 -38t47 -122h-324zM354 1063h205l211 373h-305z" />
<glyph unicode="&#xea;" horiz-adv-x="1015" d="M68 481q0 -125 36.5 -218t104 -154.5t161 -91t205.5 -29.5q100 0 188.5 20.5t135.5 42.5l-61 225q-18 -8 -48 -16t-65 -15t-71 -11.5t-66 -4.5q-199 0 -234 158h596q0 172 -34.5 285.5t-94 181.5t-137.5 95.5t-164 27.5q-82 0 -163 -31t-145.5 -92t-104 -154.5 t-39.5 -218.5zM145 1063h213l150 129l147 -129h211l-329 416h-62zM352 588q31 160 170 160q68 0 107 -38t47 -122h-324z" />
<glyph unicode="&#xeb;" horiz-adv-x="1015" d="M68 481q0 -125 36.5 -218t104 -154.5t161 -91t205.5 -29.5q100 0 188.5 20.5t135.5 42.5l-61 225q-18 -8 -48 -16t-65 -15t-71 -11.5t-66 -4.5q-199 0 -234 158h596q0 172 -34.5 285.5t-94 181.5t-137.5 95.5t-164 27.5q-82 0 -163 -31t-145.5 -92t-104 -154.5 t-39.5 -218.5zM160 1231q0 -59 45 -104.5t106 -45.5q29 0 56.5 12.5t49 33t34 47t12.5 57.5q0 33 -12.5 61.5t-34 50t-49 34t-56.5 12.5q-61 0 -106 -46.5t-45 -111.5zM352 588q31 160 170 160q68 0 107 -38t47 -122h-324zM545 1231q0 -31 12 -57.5t33.5 -47t49 -33 t58.5 -12.5q29 0 56.5 12.5t49 33t34 47t12.5 57.5q0 33 -12.5 61.5t-34 50t-49 34t-56.5 12.5q-61 0 -107 -46.5t-46 -111.5z" />
<glyph unicode="&#xec;" horiz-adv-x="555" d="M-27 1436l213 -373h205l-112 373h-306zM137 0h279v965h-279v-965z" />
<glyph unicode="&#xed;" horiz-adv-x="555" d="M137 0h279v965h-279v-965zM164 1063h205l211 373h-306z" />
<glyph unicode="&#xee;" horiz-adv-x="555" d="M-84 1063h213l150 129l147 -129h211l-330 416h-61zM137 0h279v965h-279v-965z" />
<glyph unicode="&#xef;" horiz-adv-x="555" d="M-68 1231q0 -59 45.5 -104.5t106.5 -45.5q29 0 56.5 12.5t49 33t34 47t12.5 57.5q0 33 -12.5 61.5t-34 50t-49 34t-56.5 12.5q-61 0 -106.5 -46.5t-45.5 -111.5zM137 0h279v965h-279v-965zM317 1231q0 -31 12.5 -57.5t34 -47t49 -33t58.5 -12.5q29 0 56.5 12.5t49 33 t34 47t12.5 57.5q0 33 -12.5 61.5t-34 50t-49 34t-56.5 12.5q-61 0 -107.5 -46.5t-46.5 -111.5z" />
<glyph unicode="&#xf0;" horiz-adv-x="1136" d="M74 475q0 -127 42 -218t111.5 -151.5t156.5 -89t179 -28.5q109 0 200 33.5t155.5 102.5t100.5 175.5t36 253.5q0 152 -23.5 286t-64.5 251l133 22v182l-211 -34q-35 66 -78 122t-90 97l-232 -129q61 -55 115 -138l-151 -24v-182l245 41q29 -66 48.5 -126.5t25.5 -109.5 q-29 47 -97.5 85t-160.5 38q-84 0 -163 -25.5t-140 -81t-99 -142.5t-38 -210zM356 473q0 111 60.5 176.5t146.5 65.5q41 0 79 -17.5t66.5 -49.5t46 -76t17.5 -99t-17.5 -99t-46 -75t-66.5 -47t-79 -16q-86 0 -146.5 63t-60.5 174z" />
<glyph unicode="&#xf1;" horiz-adv-x="1138" d="M129 0h277v664q37 14 85 25t113 11q84 0 112.5 -48t28.5 -154v-498h277v559q0 199 -80 302.5t-246 103.5q-90 0 -174 -22.5t-137 -49.5l-14 72h-242v-965zM190 1108l205 -47q12 61 29.5 84.5t40.5 23.5q20 0 49 -16t62.5 -34.5t70.5 -35t74 -16.5q49 0 84 19.5t61.5 58.5 t46 98.5t35.5 138.5l-209 41q-12 -59 -27.5 -84.5t-41.5 -25.5q-20 0 -48 15t-62 34.5t-70.5 35t-73.5 15.5q-86 0 -139.5 -69.5t-86.5 -235.5z" />
<glyph unicode="&#xf2;" horiz-adv-x="1114" d="M68 477q0 -127 42 -219t110.5 -152.5t156.5 -89t178 -28.5t178 28.5t158 89t113 152.5t43 219t-43 221.5t-113 155.5t-158 92t-178 31t-178 -31t-156.5 -92t-110.5 -155.5t-42 -221.5zM289 1436l213 -373h205l-113 373h-305zM350 473q0 111 59.5 176.5t145.5 65.5 q43 0 81 -17.5t66.5 -49.5t45 -76t16.5 -99t-16.5 -99t-45 -75t-66.5 -47t-81 -16q-86 0 -145.5 63t-59.5 174z" />
<glyph unicode="&#xf3;" horiz-adv-x="1114" d="M68 477q0 -127 42 -219t110.5 -152.5t156.5 -89t178 -28.5t178 28.5t158 89t113 152.5t43 219t-43 221.5t-113 155.5t-158 92t-178 31t-178 -31t-156.5 -92t-110.5 -155.5t-42 -221.5zM350 473q0 111 59.5 176.5t145.5 65.5q43 0 81 -17.5t66.5 -49.5t45 -76t16.5 -99 t-16.5 -99t-45 -75t-66.5 -47t-81 -16q-86 0 -145.5 63t-59.5 174zM410 1063h204l211 373h-305z" />
<glyph unicode="&#xf4;" horiz-adv-x="1114" d="M68 477q0 -127 42 -219t110.5 -152.5t156.5 -89t178 -28.5t178 28.5t158 89t113 152.5t43 219t-43 221.5t-113 155.5t-158 92t-178 31t-178 -31t-156.5 -92t-110.5 -155.5t-42 -221.5zM197 1063h213l149 129l148 -129h211l-330 416h-62zM350 473q0 111 59.5 176.5 t145.5 65.5q43 0 81 -17.5t66.5 -49.5t45 -76t16.5 -99t-16.5 -99t-45 -75t-66.5 -47t-81 -16q-86 0 -145.5 63t-59.5 174z" />
<glyph unicode="&#xf5;" horiz-adv-x="1114" d="M68 477q0 -127 42 -219t110.5 -152.5t156.5 -89t178 -28.5t178 28.5t158 89t113 152.5t43 219t-43 221.5t-113 155.5t-158 92t-178 31t-178 -31t-156.5 -92t-110.5 -155.5t-42 -221.5zM178 1108l205 -47q12 61 29.5 84.5t40.5 23.5q20 0 48.5 -16t62.5 -34.5t71 -35 t74 -16.5q49 0 83.5 19.5t61.5 58.5t46.5 98.5t35.5 138.5l-209 41q-12 -59 -27.5 -84.5t-42.5 -25.5q-20 0 -47.5 15t-61.5 34.5t-71 35t-74 15.5q-86 0 -139 -69.5t-86 -235.5zM350 473q0 111 59.5 176.5t145.5 65.5q43 0 81 -17.5t66.5 -49.5t45 -76t16.5 -99t-16.5 -99 t-45 -75t-66.5 -47t-81 -16q-86 0 -145.5 63t-59.5 174z" />
<glyph unicode="&#xf6;" horiz-adv-x="1114" d="M68 477q0 -127 42 -219t110.5 -152.5t156.5 -89t178 -28.5t178 28.5t158 89t113 152.5t43 219t-43 221.5t-113 155.5t-158 92t-178 31t-178 -31t-156.5 -92t-110.5 -155.5t-42 -221.5zM213 1231q0 -59 45.5 -104.5t106.5 -45.5q29 0 56.5 12.5t49 33t33.5 47t12 57.5 q0 33 -12 61.5t-33.5 50t-49.5 34t-56 12.5q-61 0 -106.5 -46.5t-45.5 -111.5zM350 473q0 111 59.5 176.5t145.5 65.5q43 0 81 -17.5t66.5 -49.5t45 -76t16.5 -99t-16.5 -99t-45 -75t-66.5 -47t-81 -16q-86 0 -145.5 63t-59.5 174zM598 1231q0 -31 12.5 -57.5t34 -47t49 -33 t58.5 -12.5q29 0 56.5 12.5t49 33t33.5 47t12 57.5q0 33 -12 61.5t-33.5 50t-49.5 34t-56 12.5q-61 0 -107.5 -46.5t-46.5 -111.5z" />
<glyph unicode="&#xf7;" horiz-adv-x="1185" d="M139 598h908v231h-908v-231zM436 342q0 -72 45 -117t111 -45q68 0 113 45t45 117q0 66 -45.5 112t-112.5 46q-66 0 -111 -46t-45 -112zM436 1090q0 -72 45 -117t111 -45q68 0 113 45t45 117q0 66 -45.5 111.5t-112.5 45.5q-66 0 -111 -46t-45 -111z" />
<glyph unicode="&#xf8;" horiz-adv-x="1114" d="M68 477q0 -152 57 -252t147 -159l-86 -179h166l58 119q70 -18 145 -18q90 0 178 28.5t158 89t113 152.5t43 219q0 152 -58.5 255.5t-150.5 162.5l88 184h-164l-60 -123q-35 10 -72.5 15.5t-74.5 5.5q-90 0 -178 -31t-156.5 -92t-110.5 -155.5t-42 -221.5zM338 473 q0 117 62.5 185.5t154.5 68.5q14 0 35 -4l-201 -418q-51 68 -51 168zM516 227l203 420q27 -33 42 -77t15 -97q0 -57 -17.5 -103t-48 -79t-70.5 -50.5t-85 -17.5q-10 0 -19.5 1t-19.5 3z" />
<glyph unicode="&#xf9;" horiz-adv-x="1132" d="M117 395q0 -201 79.5 -304t245.5 -103q88 0 171 21.5t137 47.5l10 -57h244v965h-277v-684q-35 -14 -83 -24.5t-107 -10.5q-86 0 -115 47t-29 156v516h-276v-570zM297 1436l213 -373h205l-113 373h-305z" />
<glyph unicode="&#xfa;" horiz-adv-x="1132" d="M117 395q0 -201 79.5 -304t245.5 -103q88 0 171 21.5t137 47.5l10 -57h244v965h-277v-684q-35 -14 -83 -24.5t-107 -10.5q-86 0 -115 47t-29 156v516h-276v-570zM418 1063h205l211 373h-306z" />
<glyph unicode="&#xfb;" horiz-adv-x="1132" d="M117 395q0 -201 79.5 -304t245.5 -103q88 0 171 21.5t137 47.5l10 -57h244v965h-277v-684q-35 -14 -83 -24.5t-107 -10.5q-86 0 -115 47t-29 156v516h-276v-570zM205 1063h213l149 129l148 -129h211l-330 416h-61z" />
<glyph unicode="&#xfc;" horiz-adv-x="1132" d="M117 395q0 -201 79.5 -304t245.5 -103q88 0 171 21.5t137 47.5l10 -57h244v965h-277v-684q-35 -14 -83 -24.5t-107 -10.5q-86 0 -115 47t-29 156v516h-276v-570zM221 1231q0 -59 45.5 -104.5t106.5 -45.5q29 0 56.5 12.5t49 33t33.5 47t12 57.5q0 33 -12 61.5t-33.5 50 t-49.5 34t-56 12.5q-61 0 -106.5 -46.5t-45.5 -111.5zM606 1231q0 -31 12.5 -57.5t34 -47t49 -33t58.5 -12.5q29 0 56.5 12.5t49 33t33.5 47t12 57.5q0 33 -12 61.5t-33.5 50t-49.5 34t-56 12.5q-61 0 -107.5 -46.5t-46.5 -111.5z" />
<glyph unicode="&#xfd;" horiz-adv-x="1048" d="M16 965l359 -949l-162 -401h274l545 1350h-274l-234 -580l-217 580h-291zM391 1063h205l211 373h-305z" />
<glyph unicode="&#xfe;" horiz-adv-x="1138" d="M129 -385h277v424q49 -23 112.5 -37t136.5 -14q100 0 177 39t128.5 105.5t77 155.5t25.5 191t-25.5 190.5t-77 154t-128 103.5t-177.5 38q-59 0 -122.5 -14.5t-126.5 -47.5v565h-277v-1853zM406 262v402q39 16 81.5 27t77.5 11q113 0 164 -65.5t51 -163.5 q0 -100 -52 -167.5t-163 -67.5q-49 0 -87 7t-72 17z" />
<glyph unicode="&#xff;" horiz-adv-x="1048" d="M16 965l359 -949l-162 -401h274l545 1350h-274l-234 -580l-217 580h-291zM190 1231q0 -59 45.5 -104.5t106.5 -45.5q29 0 56.5 12.5t49 33t34 47t12.5 57.5q0 33 -12.5 61.5t-34 50t-49 34t-56.5 12.5q-61 0 -106.5 -46.5t-45.5 -111.5zM575 1231q0 -31 12.5 -57.5 t34 -47t49 -33t58.5 -12.5q29 0 56.5 12.5t49 33t34 47t12.5 57.5q0 33 -12.5 61.5t-34 50t-49 34t-56.5 12.5q-61 0 -107.5 -46.5t-46.5 -111.5z" />
<glyph unicode="&#x152;" horiz-adv-x="1964" d="M113 725q0 -197 65.5 -334t183 -224t281 -127t358.5 -40h854v264h-628v326h495v266h-495v309h622v279h-848q-197 0 -359.5 -39t-280 -125t-183 -223t-65.5 -332zM416 723q0 217 114.5 329.5t337.5 112.5h80v-901h-80q-223 0 -337.5 121t-114.5 338z" />
<glyph unicode="&#x153;" horiz-adv-x="1712" d="M68 477q0 -127 42 -219t111.5 -152.5t156.5 -89t179 -28.5q100 0 189 34.5t155 108.5q123 -143 371 -143q100 0 188 20.5t135 42.5l-61 225q-18 -8 -48 -16t-65 -15t-70.5 -11.5t-66.5 -4.5q-199 0 -233 158h596q0 172 -35 285.5t-93.5 181.5t-137 95.5t-164.5 27.5 q-90 0 -173 -37t-143 -113q-66 76 -155 113t-189 37q-92 0 -179 -31t-156.5 -92t-111.5 -155.5t-42 -221.5zM350 473q0 111 60.5 176.5t146.5 65.5q41 0 79 -17.5t66.5 -49.5t46 -76t17.5 -99t-17.5 -99t-46 -75t-66.5 -47t-79 -16q-86 0 -146.5 63t-60.5 174zM1049 588 q31 160 170 160q68 0 106.5 -38t46.5 -122h-323z" />
<glyph unicode="&#x178;" horiz-adv-x="1357" d="M20 1444l510 -942v-502h297v518l508 926h-311l-342 -623l-336 623h-326zM334 1679q0 -59 45 -104t106 -45q29 0 56.5 12t49 32.5t34 47.5t12.5 57q0 33 -12.5 61.5t-34 50t-49 34t-56.5 12.5q-61 0 -106 -46t-45 -112zM719 1679q0 -31 12 -57.5t33.5 -47t49 -32.5 t58.5 -12q29 0 56.5 12t49 32.5t34 47.5t12.5 57q0 33 -12.5 61.5t-34 50t-49 34t-56.5 12.5q-61 0 -107 -46t-46 -112z" />
<glyph unicode="&#x2c6;" horiz-adv-x="1136" d="M207 1063h213l149 129l148 -129h211l-330 416h-61z" />
<glyph unicode="&#x2dc;" horiz-adv-x="1134" d="M188 1108l205 -47q12 61 29.5 84.5t40.5 23.5q20 0 49 -16t62.5 -34.5t70.5 -35t74 -16.5q49 0 84 19.5t61.5 58.5t46 98.5t35.5 138.5l-209 41q-12 -59 -27.5 -84.5t-41.5 -25.5q-20 0 -48 15t-62 34.5t-70.5 35t-73.5 15.5q-86 0 -139.5 -69.5t-86.5 -235.5z" />
<glyph unicode="&#x2000;" horiz-adv-x="963" />
<glyph unicode="&#x2001;" horiz-adv-x="1927" />
<glyph unicode="&#x2002;" horiz-adv-x="963" />
<glyph unicode="&#x2003;" horiz-adv-x="1927" />
<glyph unicode="&#x2004;" horiz-adv-x="642" />
<glyph unicode="&#x2005;" horiz-adv-x="481" />
<glyph unicode="&#x2006;" horiz-adv-x="321" />
<glyph unicode="&#x2007;" horiz-adv-x="321" />
<glyph unicode="&#x2008;" horiz-adv-x="240" />
<glyph unicode="&#x2009;" horiz-adv-x="385" />
<glyph unicode="&#x200a;" horiz-adv-x="107" />
<glyph unicode="&#x2010;" horiz-adv-x="954" d="M139 469h676v260h-676v-260z" />
<glyph unicode="&#x2011;" horiz-adv-x="954" d="M139 469h676v260h-676v-260z" />
<glyph unicode="&#x2012;" horiz-adv-x="954" d="M139 469h676v260h-676v-260z" />
<glyph unicode="&#x2013;" horiz-adv-x="1406" d="M152 485h1103v230h-1103v-230z" />
<glyph unicode="&#x2014;" horiz-adv-x="1789" d="M152 485h1486v230h-1486v-230z" />
<glyph unicode="&#x2018;" horiz-adv-x="643" d="M117 1444l186 -592h211l-88 592h-309z" />
<glyph unicode="&#x2019;" horiz-adv-x="643" d="M131 852h209l188 592h-309z" />
<glyph unicode="&#x201a;" horiz-adv-x="643" d="M131 -326h209l188 588h-309z" />
<glyph unicode="&#x201c;" d="M117 1444l186 -592h197l-88 592h-295zM526 1444l189 -592h194l-88 592h-295z" />
<glyph unicode="&#x201d;" d="M131 852h197l188 592h-297zM543 852h194l187 592h-295z" />
<glyph unicode="&#x201e;" d="M131 -326h197l188 588h-297zM543 -326h194l187 588h-295z" />
<glyph unicode="&#x2022;" horiz-adv-x="890" d="M147 688q0 -82 24 -149.5t63.5 -115.5t94 -74.5t115.5 -26.5q63 0 117.5 26.5t94.5 74.5t63.5 116.5t23.5 152.5q0 82 -23.5 150.5t-63.5 118t-94 76t-118 26.5q-61 0 -115.5 -26.5t-94 -76t-63.5 -119t-24 -153.5z" />
<glyph unicode="&#x2026;" horiz-adv-x="1671" d="M131 180q0 -86 54 -140t132 -54q80 0 134.5 54t54.5 140q0 80 -54.5 133.5t-134.5 53.5q-78 0 -132 -53.5t-54 -133.5zM649 180q0 -86 53.5 -140t131.5 -54q80 0 134 54t54 140q0 80 -54.5 133.5t-133.5 53.5q-78 0 -131.5 -53.5t-53.5 -133.5zM1165 180q0 -86 54.5 -140 t132.5 -54q80 0 134 54t54 140q0 80 -54 133.5t-134 53.5q-78 0 -132.5 -53.5t-54.5 -133.5z" />
<glyph unicode="&#x202f;" horiz-adv-x="385" />
<glyph unicode="&#x2039;" horiz-adv-x="761" d="M113 483l237 -483h283l-238 483l238 482h-283z" />
<glyph unicode="&#x203a;" horiz-adv-x="761" d="M129 0h283l237 483l-237 482h-283l236 -482z" />
<glyph unicode="&#x205f;" horiz-adv-x="481" />
<glyph unicode="&#x20ac;" horiz-adv-x="1263" d="M49 463h219q33 -115 94.5 -203t144.5 -148.5t182 -91t208 -30.5q92 0 171 19.5t126 41.5l-78 232q-31 -10 -88 -24.5t-125 -14.5q-121 0 -209 57t-135 162h414v188h-457q-2 14 -2 27v31q0 23 1 42t3 37h455v185h-406q49 98 135 149.5t205 51.5q41 0 101.5 -10.5 t107.5 -28.5l74 254q-35 16 -110.5 35.5t-186.5 19.5q-106 0 -204.5 -32t-180.5 -91t-144.5 -147.5t-95.5 -200.5h-219v-185h187q-2 -16 -3 -34v-37v-33q0 -16 3 -33h-187v-188z" />
<glyph unicode="&#x2122;" horiz-adv-x="2027" d="M78 1223h268v-756h258v756h262v221h-788v-221zM913 467h240l12 410l201 -373h47l211 373l12 -410h254l-41 979h-98l-350 -559l-348 559h-99z" />
<glyph unicode="&#x25fc;" horiz-adv-x="962" d="M0 0v963h963v-963h-963z" />
<glyph unicode="&#xfb01;" horiz-adv-x="1241" d="M41 721h168v-721h276v721h338v-721h279v965h-617v39q0 53 8.5 91t35 62.5t72.5 35.5t124 11q31 0 68.5 -4t74.5 -9t70 -12.5t55 -13.5l54 256q-63 16 -157.5 31.5t-209.5 15.5q-250 0 -360.5 -108.5t-110.5 -349.5v-45h-168v-244z" />
<glyph unicode="&#xfb02;" horiz-adv-x="1241" d="M41 721h168v-721h276v721h177v244h-177v47q0 53 8.5 91t35 62.5t72.5 35.5t124 11q45 0 98 -6v-1206h279v1442h-193q-47 10 -103 18t-126 8q-250 0 -360.5 -108.5t-110.5 -349.5v-45h-168v-244z" />
</font>
</defs>
</svg>
